<mxfile host="app.diagrams.net" modified="2023-08-24T18:43:28.552Z" agent="Mozilla/5.0 (Windows NT 10.0; Win64; x64) AppleWebKit/537.36 (KHTML, like Gecko) Chrome/115.0.0.0 Safari/537.36 Edg/115.0.1901.203" etag="32yE_KD6RMmu_mjwjmiU" version="21.6.9" type="github">
  <diagram name="Page-1" id="2c0d36ab-eaac-3732-788b-9136903baeff">
    <mxGraphModel dx="1230" dy="690" grid="1" gridSize="10" guides="1" tooltips="1" connect="1" arrows="1" fold="1" page="0" pageScale="1.5" pageWidth="1169" pageHeight="827" background="none" math="0" shadow="0">
      <root>
        <mxCell id="0" />
        <mxCell id="1" parent="0" />
        <mxCell id="NunpnJ9l62--Nl-iWXcG-141" value="" style="fillColor=#F2931E;strokeColor=none;opacity=30;" vertex="1" parent="1">
          <mxGeometry x="1197" y="705.5" width="163" height="294.5" as="geometry" />
        </mxCell>
        <mxCell id="122" value="" style="fillColor=#10739E;strokeColor=none;opacity=30;" parent="1" vertex="1">
          <mxGeometry x="97" y="325.5" width="1593" height="100" as="geometry" />
        </mxCell>
        <mxCell id="121" value="" style="fillColor=#F2931E;strokeColor=none;opacity=30;" parent="1" vertex="1">
          <mxGeometry x="1557" y="705.5" width="150" height="270" as="geometry" />
        </mxCell>
        <mxCell id="120" value="" style="fillColor=#F2931E;strokeColor=none;opacity=30;" parent="1" vertex="1">
          <mxGeometry x="967" y="445.5" width="150" height="90" as="geometry" />
        </mxCell>
        <mxCell id="119" value="" style="fillColor=#F2931E;strokeColor=none;opacity=30;" parent="1" vertex="1">
          <mxGeometry x="757" y="705.5" width="150" height="270" as="geometry" />
        </mxCell>
        <mxCell id="118" value="" style="fillColor=#F2931E;strokeColor=none;opacity=30;" parent="1" vertex="1">
          <mxGeometry x="227.00000000000009" y="445.5000000000002" width="149.99999999999991" height="439.9999999999998" as="geometry" />
        </mxCell>
        <mxCell id="117" value="" style="fillColor=#F2931E;strokeColor=none;opacity=30;" parent="1" vertex="1">
          <mxGeometry x="377" y="535.5" width="1330" height="170" as="geometry" />
        </mxCell>
        <mxCell id="116" value="" style="fillColor=#10739E;strokeColor=none;opacity=30;" parent="1" vertex="1">
          <mxGeometry x="1557" y="985.5000000000002" width="150" height="80" as="geometry" />
        </mxCell>
        <mxCell id="115" value="" style="fillColor=#10739E;strokeColor=none;opacity=30;" parent="1" vertex="1">
          <mxGeometry x="1720" y="795.5" width="330" height="80" as="geometry" />
        </mxCell>
        <mxCell id="114" value="" style="fillColor=#10739E;strokeColor=none;opacity=30;" parent="1" vertex="1">
          <mxGeometry x="756.9999999999999" y="985.5000000000001" width="150" height="80" as="geometry" />
        </mxCell>
        <mxCell id="113" value="" style="fillColor=#10739E;strokeColor=none;opacity=30;" parent="1" vertex="1">
          <mxGeometry x="407.00000000000006" y="715.5000000000001" width="329.99999999999994" height="80" as="geometry" />
        </mxCell>
        <mxCell id="112" value="" style="fillColor=#10739E;strokeColor=none;opacity=30;" parent="1" vertex="1">
          <mxGeometry x="226.99999999999997" y="895.5" width="150" height="80" as="geometry" />
        </mxCell>
        <mxCell id="111" value="" style="fillColor=#D9EAD3;strokeColor=none" parent="1" vertex="1">
          <mxGeometry x="47" y="535.5000000000001" width="150" height="80" as="geometry" />
        </mxCell>
        <mxCell id="110" value="" style="fillColor=#12AAB5;strokeColor=none;opacity=30;" parent="1" vertex="1">
          <mxGeometry x="1207" y="445.5000000000001" width="500" height="80" as="geometry" />
        </mxCell>
        <mxCell id="109" value="" style="fillColor=#12AAB5;strokeColor=none;opacity=30;" parent="1" vertex="1">
          <mxGeometry x="407" y="445.5" width="500" height="80" as="geometry" />
        </mxCell>
        <mxCell id="108" value="" style="fillColor=#12AAB5;strokeColor=none;opacity=30;" parent="1" vertex="1">
          <mxGeometry x="47.000000000000014" y="445.5" width="150" height="80" as="geometry" />
        </mxCell>
        <mxCell id="4" value="SuperAdmin" style="rounded=1;fillColor=#23445D;gradientColor=none;strokeColor=none;fontColor=#FFFFFF;fontStyle=1;fontFamily=Tahoma;fontSize=14" parent="1" vertex="1">
          <mxGeometry x="1269.9999999999998" y="335.5" width="190" height="80" as="geometry" />
        </mxCell>
        <mxCell id="9" value="" style="edgeStyle=elbowEdgeStyle;elbow=vertical;strokeWidth=2;rounded=0;entryX=0.5;entryY=0;entryDx=0;entryDy=0;" parent="1" target="NunpnJ9l62--Nl-iWXcG-130" edge="1">
          <mxGeometry x="337" y="215.5" width="100" height="100" as="geometry">
            <mxPoint x="852" y="261" as="sourcePoint" />
            <mxPoint x="1575" y="325.5" as="targetPoint" />
            <Array as="points">
              <mxPoint x="1140" y="300" />
              <mxPoint x="860" y="300" />
              <mxPoint x="1360" y="295.5" />
            </Array>
          </mxGeometry>
        </mxCell>
        <mxCell id="10" value="Company&#xa;class" style="rounded=1;fillColor=#23445D;gradientColor=none;strokeColor=none;fontColor=#FFFFFF;fontStyle=1;fontFamily=Tahoma;fontSize=14" parent="1" vertex="1">
          <mxGeometry x="1030" y="335.5" width="190" height="80" as="geometry" />
        </mxCell>
        <mxCell id="12" value="Plan &#xa;class" style="rounded=1;fillColor=#23445D;gradientColor=none;strokeColor=none;fontColor=#FFFFFF;fontStyle=1;fontFamily=Tahoma;fontSize=14" parent="1" vertex="1">
          <mxGeometry x="566.9999999999999" y="335.5" width="190" height="80" as="geometry" />
        </mxCell>
        <mxCell id="13" value="Apartment&#xa;class" style="rounded=1;fillColor=#23445D;gradientColor=none;strokeColor=none;fontColor=#FFFFFF;fontStyle=1;fontFamily=Tahoma;fontSize=14" parent="1" vertex="1">
          <mxGeometry x="107" y="335.5" width="190" height="80" as="geometry" />
        </mxCell>
        <mxCell id="14" value="Regular Report" style="rounded=1;fillColor=#23445D;gradientColor=none;strokeColor=none;fontColor=#FFFFFF;fontStyle=1;fontFamily=Tahoma;fontSize=14" parent="1" vertex="1">
          <mxGeometry x="57" y="455.5" width="130" height="60" as="geometry" />
        </mxCell>
        <mxCell id="15" value="Data Collection" style="rounded=1;fillColor=#23445D;gradientColor=none;strokeColor=none;fontColor=#FFFFFF;fontStyle=1;fontFamily=Tahoma;fontSize=14" parent="1" vertex="1">
          <mxGeometry x="57" y="545.5" width="130" height="60" as="geometry" />
        </mxCell>
        <mxCell id="16" value="Programming" style="rounded=1;fillColor=#23445D;gradientColor=none;strokeColor=none;fontColor=#FFFFFF;fontStyle=1;fontFamily=Tahoma;fontSize=14" parent="1" vertex="1">
          <mxGeometry x="237" y="455.5" width="130" height="60" as="geometry" />
        </mxCell>
        <mxCell id="17" value="HTTP" style="rounded=1;fillColor=#23445D;gradientColor=none;strokeColor=none;fontColor=#FFFFFF;fontStyle=1;fontFamily=Tahoma;fontSize=14" parent="1" vertex="1">
          <mxGeometry x="237" y="545.5" width="130" height="60" as="geometry" />
        </mxCell>
        <mxCell id="18" value="HTS" style="rounded=1;fillColor=#23445D;gradientColor=none;strokeColor=none;fontColor=#FFFFFF;fontStyle=1;fontFamily=Tahoma;fontSize=14" parent="1" vertex="1">
          <mxGeometry x="237" y="635.5" width="130" height="60" as="geometry" />
        </mxCell>
        <mxCell id="19" value="CVS" style="rounded=1;fillColor=#23445D;gradientColor=none;strokeColor=none;fontColor=#FFFFFF;fontStyle=1;fontFamily=Tahoma;fontSize=14" parent="1" vertex="1">
          <mxGeometry x="237" y="725.5" width="130" height="60" as="geometry" />
        </mxCell>
        <mxCell id="20" value="Client / Server" style="rounded=1;fillColor=#23445D;gradientColor=none;strokeColor=none;fontColor=#FFFFFF;fontStyle=1;fontFamily=Tahoma;fontSize=14" parent="1" vertex="1">
          <mxGeometry x="237" y="815.5" width="130" height="60" as="geometry" />
        </mxCell>
        <mxCell id="23" value="Data Collection" style="rounded=1;fillColor=#23445D;gradientColor=none;strokeColor=none;fontColor=#FFFFFF;fontStyle=1;fontFamily=Tahoma;fontSize=14" parent="1" vertex="1">
          <mxGeometry x="237" y="905.4999999999999" width="130" height="60" as="geometry" />
        </mxCell>
        <mxCell id="25" value="SI" style="rounded=1;fillColor=#23445D;gradientColor=none;strokeColor=none;fontColor=#FFFFFF;fontStyle=1;fontFamily=Tahoma;fontSize=14" parent="1" vertex="1">
          <mxGeometry x="417" y="455.5" width="130" height="60" as="geometry" />
        </mxCell>
        <mxCell id="26" value="Programming" style="rounded=1;fillColor=#23445D;gradientColor=none;strokeColor=none;fontColor=#FFFFFF;fontStyle=1;fontFamily=Tahoma;fontSize=14" parent="1" vertex="1">
          <mxGeometry x="417" y="545.5" width="130" height="60" as="geometry" />
        </mxCell>
        <mxCell id="27" value="Client / Server" style="rounded=1;fillColor=#23445D;gradientColor=none;strokeColor=none;fontColor=#FFFFFF;fontStyle=1;fontFamily=Tahoma;fontSize=14" parent="1" vertex="1">
          <mxGeometry x="417" y="635.5" width="130" height="60" as="geometry" />
        </mxCell>
        <mxCell id="28" value="Data Collection" style="rounded=1;fillColor=#23445D;gradientColor=none;strokeColor=none;fontColor=#FFFFFF;fontStyle=1;fontFamily=Tahoma;fontSize=14" parent="1" vertex="1">
          <mxGeometry x="417" y="725.5" width="130" height="60" as="geometry" />
        </mxCell>
        <mxCell id="29" value="SSI" style="rounded=1;fillColor=#23445D;gradientColor=none;strokeColor=none;fontColor=#FFFFFF;fontStyle=1;fontFamily=Tahoma;fontSize=14" parent="1" vertex="1">
          <mxGeometry x="592" y="455.5" width="130" height="60" as="geometry" />
        </mxCell>
        <mxCell id="30" value="Programming" style="rounded=1;fillColor=#23445D;gradientColor=none;strokeColor=none;fontColor=#FFFFFF;fontStyle=1;fontFamily=Tahoma;fontSize=14" parent="1" vertex="1">
          <mxGeometry x="592" y="545.5" width="130" height="60" as="geometry" />
        </mxCell>
        <mxCell id="31" value="Client / Server" style="rounded=1;fillColor=#23445D;gradientColor=none;strokeColor=none;fontColor=#FFFFFF;fontStyle=1;fontFamily=Tahoma;fontSize=14" parent="1" vertex="1">
          <mxGeometry x="592" y="635.5" width="130" height="60" as="geometry" />
        </mxCell>
        <mxCell id="32" value="Data Collection" style="rounded=1;fillColor=#23445D;gradientColor=none;strokeColor=none;fontColor=#FFFFFF;fontStyle=1;fontFamily=Tahoma;fontSize=14" parent="1" vertex="1">
          <mxGeometry x="592" y="725.5" width="130" height="60" as="geometry" />
        </mxCell>
        <mxCell id="33" value="XMI" style="rounded=1;fillColor=#23445D;gradientColor=none;strokeColor=none;fontColor=#FFFFFF;fontStyle=1;fontFamily=Tahoma;fontSize=14" parent="1" vertex="1">
          <mxGeometry x="767" y="455.5" width="130" height="60" as="geometry" />
        </mxCell>
        <mxCell id="34" value="Programming" style="rounded=1;fillColor=#23445D;gradientColor=none;strokeColor=none;fontColor=#FFFFFF;fontStyle=1;fontFamily=Tahoma;fontSize=14" parent="1" vertex="1">
          <mxGeometry x="767" y="545.5" width="130" height="60" as="geometry" />
        </mxCell>
        <mxCell id="35" value="HTTP" style="rounded=1;fillColor=#23445D;gradientColor=none;strokeColor=none;fontColor=#FFFFFF;fontStyle=1;fontFamily=Tahoma;fontSize=14" parent="1" vertex="1">
          <mxGeometry x="767" y="635.5" width="130" height="60" as="geometry" />
        </mxCell>
        <mxCell id="36" value="HTS" style="rounded=1;fillColor=#23445D;gradientColor=none;strokeColor=none;fontColor=#FFFFFF;fontStyle=1;fontFamily=Tahoma;fontSize=14" parent="1" vertex="1">
          <mxGeometry x="767" y="725.5" width="130" height="60" as="geometry" />
        </mxCell>
        <mxCell id="37" value="CVS" style="rounded=1;fillColor=#23445D;gradientColor=none;strokeColor=none;fontColor=#FFFFFF;fontStyle=1;fontFamily=Tahoma;fontSize=14" parent="1" vertex="1">
          <mxGeometry x="767" y="815.5" width="130" height="60" as="geometry" />
        </mxCell>
        <mxCell id="38" value="Client / Server" style="rounded=1;fillColor=#23445D;gradientColor=none;strokeColor=none;fontColor=#FFFFFF;fontStyle=1;fontFamily=Tahoma;fontSize=14" parent="1" vertex="1">
          <mxGeometry x="767" y="905.5" width="130" height="60" as="geometry" />
        </mxCell>
        <mxCell id="39" value="Data Collection" style="rounded=1;fillColor=#23445D;gradientColor=none;strokeColor=none;fontColor=#FFFFFF;fontStyle=1;fontFamily=Tahoma;fontSize=14" parent="1" vertex="1">
          <mxGeometry x="767" y="995.5" width="130" height="60" as="geometry" />
        </mxCell>
        <mxCell id="41" value="FAQ" style="rounded=1;fillColor=#23445D;gradientColor=none;strokeColor=none;fontColor=#FFFFFF;fontStyle=1;fontFamily=Tahoma;fontSize=14" parent="1" vertex="1">
          <mxGeometry x="977" y="455.5" width="130" height="60" as="geometry" />
        </mxCell>
        <mxCell id="42" value="Know Issues" style="rounded=1;fillColor=#23445D;gradientColor=none;strokeColor=none;fontColor=#FFFFFF;fontStyle=1;fontFamily=Tahoma;fontSize=14" parent="1" vertex="1">
          <mxGeometry x="977" y="545.5" width="130" height="60" as="geometry" />
        </mxCell>
        <mxCell id="43" value="Knowhow" style="rounded=1;fillColor=#23445D;gradientColor=none;strokeColor=none;fontColor=#FFFFFF;fontStyle=1;fontFamily=Tahoma;fontSize=14" parent="1" vertex="1">
          <mxGeometry x="977" y="635.5" width="130" height="60" as="geometry" />
        </mxCell>
        <mxCell id="44" value="fields" style="rounded=1;fillColor=#23445D;gradientColor=none;strokeColor=none;fontColor=#FFFFFF;fontStyle=1;fontFamily=Tahoma;fontSize=14" parent="1" vertex="1">
          <mxGeometry x="1217" y="455.50000000000006" width="130" height="60" as="geometry" />
        </mxCell>
        <mxCell id="45" value="UUID id" style="rounded=1;fillColor=#23445D;gradientColor=none;strokeColor=none;fontColor=#FFFFFF;fontStyle=1;fontFamily=Tahoma;fontSize=14" parent="1" vertex="1">
          <mxGeometry x="1217" y="545.5" width="130" height="60" as="geometry" />
        </mxCell>
        <mxCell id="46" value="String name" style="rounded=1;fillColor=#23445D;gradientColor=none;strokeColor=none;fontColor=#FFFFFF;fontStyle=1;fontFamily=Tahoma;fontSize=14" parent="1" vertex="1">
          <mxGeometry x="1217" y="635.5" width="130" height="60" as="geometry" />
        </mxCell>
        <mxCell id="47" value="String email" style="rounded=1;fillColor=#23445D;gradientColor=none;strokeColor=none;fontColor=#FFFFFF;fontStyle=1;fontFamily=Tahoma;fontSize=14" parent="1" vertex="1">
          <mxGeometry x="1217" y="725.5000000000001" width="130" height="60" as="geometry" />
        </mxCell>
        <mxCell id="52" value="XMI" style="rounded=1;fillColor=#23445D;gradientColor=none;strokeColor=none;fontColor=#FFFFFF;fontStyle=1;fontFamily=Tahoma;fontSize=14" parent="1" vertex="1">
          <mxGeometry x="1567" y="455.50000000000006" width="130" height="60" as="geometry" />
        </mxCell>
        <mxCell id="53" value="Programming" style="rounded=1;fillColor=#23445D;gradientColor=none;strokeColor=none;fontColor=#FFFFFF;fontStyle=1;fontFamily=Tahoma;fontSize=14" parent="1" vertex="1">
          <mxGeometry x="1567" y="545.5" width="130" height="60" as="geometry" />
        </mxCell>
        <mxCell id="54" value="HTTP" style="rounded=1;fillColor=#23445D;gradientColor=none;strokeColor=none;fontColor=#FFFFFF;fontStyle=1;fontFamily=Tahoma;fontSize=14" parent="1" vertex="1">
          <mxGeometry x="1567" y="635.5" width="130" height="60" as="geometry" />
        </mxCell>
        <mxCell id="55" value="HTS" style="rounded=1;fillColor=#23445D;gradientColor=none;strokeColor=none;fontColor=#FFFFFF;fontStyle=1;fontFamily=Tahoma;fontSize=14" parent="1" vertex="1">
          <mxGeometry x="1567" y="725.5000000000001" width="130" height="60" as="geometry" />
        </mxCell>
        <mxCell id="56" value="CVS" style="rounded=1;fillColor=#23445D;gradientColor=none;strokeColor=none;fontColor=#FFFFFF;fontStyle=1;fontFamily=Tahoma;fontSize=14" parent="1" vertex="1">
          <mxGeometry x="1567" y="815.5000000000001" width="130" height="60" as="geometry" />
        </mxCell>
        <mxCell id="57" value="Client / Server" style="rounded=1;fillColor=#23445D;gradientColor=none;strokeColor=none;fontColor=#FFFFFF;fontStyle=1;fontFamily=Tahoma;fontSize=14" parent="1" vertex="1">
          <mxGeometry x="1567" y="905.5000000000001" width="130" height="60" as="geometry" />
        </mxCell>
        <mxCell id="58" value="Data Collection" style="rounded=1;fillColor=#23445D;gradientColor=none;strokeColor=none;fontColor=#FFFFFF;fontStyle=1;fontFamily=Tahoma;fontSize=14" parent="1" vertex="1">
          <mxGeometry x="1567" y="995.5000000000001" width="130" height="60" as="geometry" />
        </mxCell>
        <mxCell id="59" value="" style="edgeStyle=elbowEdgeStyle;elbow=vertical;strokeWidth=2;rounded=0" parent="1" target="12" edge="1">
          <mxGeometry x="347" y="225.5" width="100" height="100" as="geometry">
            <mxPoint x="852" y="265.5" as="sourcePoint" />
            <mxPoint x="1466.9999999999998" y="345.5" as="targetPoint" />
          </mxGeometry>
        </mxCell>
        <mxCell id="61" value="" style="edgeStyle=elbowEdgeStyle;elbow=vertical;strokeWidth=2;rounded=0" parent="1" target="13" edge="1">
          <mxGeometry x="-23" y="135.5" width="100" height="100" as="geometry">
            <mxPoint x="852" y="265.5" as="sourcePoint" />
            <mxPoint x="77" y="135.5" as="targetPoint" />
            <Array as="points">
              <mxPoint x="850" y="300" />
            </Array>
          </mxGeometry>
        </mxCell>
        <mxCell id="62" value="" style="edgeStyle=elbowEdgeStyle;elbow=vertical;strokeWidth=2;rounded=0" parent="1" source="13" target="14" edge="1">
          <mxGeometry x="-23" y="135.5" width="100" height="100" as="geometry">
            <mxPoint x="-23" y="235.5" as="sourcePoint" />
            <mxPoint x="77" y="135.5" as="targetPoint" />
          </mxGeometry>
        </mxCell>
        <mxCell id="64" value="" style="edgeStyle=elbowEdgeStyle;elbow=horizontal;strokeWidth=2;rounded=0" parent="1" source="13" target="16" edge="1">
          <mxGeometry x="-23" y="135.5" width="100" height="100" as="geometry">
            <mxPoint x="-23" y="235.5" as="sourcePoint" />
            <mxPoint x="77" y="135.5" as="targetPoint" />
            <Array as="points">
              <mxPoint x="202" y="435.5" />
            </Array>
          </mxGeometry>
        </mxCell>
        <mxCell id="65" value="" style="edgeStyle=elbowEdgeStyle;elbow=horizontal;strokeWidth=2;rounded=0" parent="1" source="13" target="17" edge="1">
          <mxGeometry x="-23" y="135.5" width="100" height="100" as="geometry">
            <mxPoint x="-23" y="235.5" as="sourcePoint" />
            <mxPoint x="77" y="135.5" as="targetPoint" />
            <Array as="points">
              <mxPoint x="202" y="475.5" />
            </Array>
          </mxGeometry>
        </mxCell>
        <mxCell id="66" value="" style="edgeStyle=elbowEdgeStyle;elbow=horizontal;strokeWidth=2;rounded=0" parent="1" source="13" target="18" edge="1">
          <mxGeometry x="-23" y="135.5" width="100" height="100" as="geometry">
            <mxPoint x="-23" y="235.5" as="sourcePoint" />
            <mxPoint x="77" y="135.5" as="targetPoint" />
            <Array as="points">
              <mxPoint x="202" y="525.5" />
            </Array>
          </mxGeometry>
        </mxCell>
        <mxCell id="67" value="" style="edgeStyle=elbowEdgeStyle;elbow=horizontal;strokeWidth=2;rounded=0" parent="1" source="13" target="19" edge="1">
          <mxGeometry x="-23" y="135.5" width="100" height="100" as="geometry">
            <mxPoint x="-23" y="235.5" as="sourcePoint" />
            <mxPoint x="77" y="135.5" as="targetPoint" />
            <Array as="points">
              <mxPoint x="202" y="575.5" />
            </Array>
          </mxGeometry>
        </mxCell>
        <mxCell id="68" value="" style="edgeStyle=elbowEdgeStyle;elbow=horizontal;strokeWidth=2;rounded=0" parent="1" source="13" target="20" edge="1">
          <mxGeometry x="-23" y="135.5" width="100" height="100" as="geometry">
            <mxPoint x="-23" y="235.5" as="sourcePoint" />
            <mxPoint x="77" y="135.5" as="targetPoint" />
            <Array as="points">
              <mxPoint x="202" y="615.5" />
            </Array>
          </mxGeometry>
        </mxCell>
        <mxCell id="69" value="" style="edgeStyle=elbowEdgeStyle;elbow=horizontal;strokeWidth=2;rounded=0" parent="1" source="13" target="23" edge="1">
          <mxGeometry x="-23" y="135.5" width="100" height="100" as="geometry">
            <mxPoint x="-23" y="235.5" as="sourcePoint" />
            <mxPoint x="77" y="135.5" as="targetPoint" />
            <Array as="points">
              <mxPoint x="202" y="665.5" />
            </Array>
          </mxGeometry>
        </mxCell>
        <mxCell id="70" value="" style="edgeStyle=elbowEdgeStyle;elbow=horizontal;strokeWidth=2;rounded=0" parent="1" source="25" target="26" edge="1">
          <mxGeometry x="-23" y="135.5" width="100" height="100" as="geometry">
            <mxPoint x="-23" y="235.5" as="sourcePoint" />
            <mxPoint x="77" y="135.5" as="targetPoint" />
            <Array as="points">
              <mxPoint x="397" y="535.5" />
            </Array>
          </mxGeometry>
        </mxCell>
        <mxCell id="71" value="" style="edgeStyle=elbowEdgeStyle;elbow=horizontal;strokeWidth=2;rounded=0" parent="1" source="25" target="27" edge="1">
          <mxGeometry x="-23" y="135.5" width="100" height="100" as="geometry">
            <mxPoint x="-23" y="235.5" as="sourcePoint" />
            <mxPoint x="77" y="135.5" as="targetPoint" />
            <Array as="points">
              <mxPoint x="397" y="575.5" />
            </Array>
          </mxGeometry>
        </mxCell>
        <mxCell id="72" value="" style="edgeStyle=elbowEdgeStyle;elbow=horizontal;strokeWidth=2;rounded=0" parent="1" source="25" target="28" edge="1">
          <mxGeometry x="-23" y="135.5" width="100" height="100" as="geometry">
            <mxPoint x="-23" y="235.5" as="sourcePoint" />
            <mxPoint x="77" y="135.5" as="targetPoint" />
            <Array as="points">
              <mxPoint x="397" y="615.5" />
            </Array>
          </mxGeometry>
        </mxCell>
        <mxCell id="73" value="" style="edgeStyle=elbowEdgeStyle;elbow=horizontal;strokeWidth=2;rounded=0" parent="1" source="29" target="30" edge="1">
          <mxGeometry x="-23" y="135.5" width="100" height="100" as="geometry">
            <mxPoint x="-23" y="235.5" as="sourcePoint" />
            <mxPoint x="77" y="135.5" as="targetPoint" />
            <Array as="points">
              <mxPoint x="567" y="535.5" />
            </Array>
          </mxGeometry>
        </mxCell>
        <mxCell id="74" value="" style="edgeStyle=elbowEdgeStyle;elbow=horizontal;strokeWidth=2;rounded=0" parent="1" source="29" target="31" edge="1">
          <mxGeometry x="-23" y="135.5" width="100" height="100" as="geometry">
            <mxPoint x="-23" y="235.5" as="sourcePoint" />
            <mxPoint x="77" y="135.5" as="targetPoint" />
            <Array as="points">
              <mxPoint x="567" y="575.5" />
            </Array>
          </mxGeometry>
        </mxCell>
        <mxCell id="75" value="" style="edgeStyle=elbowEdgeStyle;elbow=horizontal;strokeWidth=2;rounded=0" parent="1" source="29" target="32" edge="1">
          <mxGeometry x="-23" y="135.5" width="100" height="100" as="geometry">
            <mxPoint x="-23" y="235.5" as="sourcePoint" />
            <mxPoint x="77" y="135.5" as="targetPoint" />
            <Array as="points">
              <mxPoint x="567" y="615.5" />
            </Array>
          </mxGeometry>
        </mxCell>
        <mxCell id="76" value="" style="edgeStyle=elbowEdgeStyle;elbow=horizontal;strokeWidth=2;rounded=0" parent="1" source="33" target="34" edge="1">
          <mxGeometry x="-23" y="135.5" width="100" height="100" as="geometry">
            <mxPoint x="-23" y="235.5" as="sourcePoint" />
            <mxPoint x="77" y="135.5" as="targetPoint" />
            <Array as="points">
              <mxPoint x="747" y="535.5" />
            </Array>
          </mxGeometry>
        </mxCell>
        <mxCell id="77" value="" style="edgeStyle=elbowEdgeStyle;elbow=horizontal;strokeWidth=2;rounded=0" parent="1" source="33" target="35" edge="1">
          <mxGeometry x="-23" y="135.5" width="100" height="100" as="geometry">
            <mxPoint x="-23" y="235.5" as="sourcePoint" />
            <mxPoint x="77" y="135.5" as="targetPoint" />
            <Array as="points">
              <mxPoint x="747" y="575.5" />
            </Array>
          </mxGeometry>
        </mxCell>
        <mxCell id="78" value="" style="edgeStyle=elbowEdgeStyle;elbow=horizontal;strokeWidth=2;rounded=0" parent="1" source="33" target="36" edge="1">
          <mxGeometry x="-23" y="135.5" width="100" height="100" as="geometry">
            <mxPoint x="-23" y="235.5" as="sourcePoint" />
            <mxPoint x="77" y="135.5" as="targetPoint" />
            <Array as="points">
              <mxPoint x="747" y="625.5" />
            </Array>
          </mxGeometry>
        </mxCell>
        <mxCell id="79" value="" style="edgeStyle=elbowEdgeStyle;elbow=horizontal;strokeWidth=2;rounded=0" parent="1" source="33" target="37" edge="1">
          <mxGeometry x="-23" y="135.5" width="100" height="100" as="geometry">
            <mxPoint x="-23" y="235.5" as="sourcePoint" />
            <mxPoint x="77" y="135.5" as="targetPoint" />
            <Array as="points">
              <mxPoint x="747" y="665.5" />
            </Array>
          </mxGeometry>
        </mxCell>
        <mxCell id="80" value="" style="edgeStyle=elbowEdgeStyle;elbow=horizontal;strokeWidth=2;rounded=0" parent="1" source="33" target="38" edge="1">
          <mxGeometry x="-23" y="135.5" width="100" height="100" as="geometry">
            <mxPoint x="-23" y="235.5" as="sourcePoint" />
            <mxPoint x="77" y="135.5" as="targetPoint" />
            <Array as="points">
              <mxPoint x="747" y="705.5" />
            </Array>
          </mxGeometry>
        </mxCell>
        <mxCell id="81" value="" style="edgeStyle=elbowEdgeStyle;elbow=horizontal;strokeWidth=2;rounded=0" parent="1" source="33" target="39" edge="1">
          <mxGeometry x="-23" y="135.5" width="100" height="100" as="geometry">
            <mxPoint x="-23" y="235.5" as="sourcePoint" />
            <mxPoint x="77" y="135.5" as="targetPoint" />
            <Array as="points">
              <mxPoint x="747" y="755.5" />
            </Array>
          </mxGeometry>
        </mxCell>
        <mxCell id="82" value="" style="edgeStyle=elbowEdgeStyle;elbow=horizontal;strokeWidth=2;rounded=0" parent="1" source="41" target="42" edge="1">
          <mxGeometry x="-23" y="135.5" width="100" height="100" as="geometry">
            <mxPoint x="-23" y="235.5" as="sourcePoint" />
            <mxPoint x="77" y="135.5" as="targetPoint" />
            <Array as="points">
              <mxPoint x="957" y="535.5" />
            </Array>
          </mxGeometry>
        </mxCell>
        <mxCell id="83" value="" style="edgeStyle=elbowEdgeStyle;elbow=horizontal;strokeWidth=2;rounded=0" parent="1" source="41" target="43" edge="1">
          <mxGeometry x="-23" y="135.5" width="100" height="100" as="geometry">
            <mxPoint x="-23" y="235.5" as="sourcePoint" />
            <mxPoint x="77" y="135.5" as="targetPoint" />
            <Array as="points">
              <mxPoint x="957" y="585.5" />
            </Array>
          </mxGeometry>
        </mxCell>
        <mxCell id="84" value="" style="edgeStyle=elbowEdgeStyle;elbow=horizontal;strokeWidth=2;rounded=0" parent="1" source="44" target="45" edge="1">
          <mxGeometry x="-23" y="135.5" width="100" height="100" as="geometry">
            <mxPoint x="-23" y="235.5" as="sourcePoint" />
            <mxPoint x="77" y="135.5" as="targetPoint" />
            <Array as="points">
              <mxPoint x="1197" y="545.5" />
            </Array>
          </mxGeometry>
        </mxCell>
        <mxCell id="85" value="" style="edgeStyle=elbowEdgeStyle;elbow=horizontal;strokeWidth=2;rounded=0" parent="1" source="44" target="46" edge="1">
          <mxGeometry x="-23" y="135.5" width="100" height="100" as="geometry">
            <mxPoint x="-23" y="235.5" as="sourcePoint" />
            <mxPoint x="77" y="135.5" as="targetPoint" />
            <Array as="points">
              <mxPoint x="1197" y="575.5" />
            </Array>
          </mxGeometry>
        </mxCell>
        <mxCell id="86" value="" style="edgeStyle=elbowEdgeStyle;elbow=horizontal;strokeWidth=2;rounded=0" parent="1" source="44" target="47" edge="1">
          <mxGeometry x="-23" y="135.5" width="100" height="100" as="geometry">
            <mxPoint x="-23" y="235.5" as="sourcePoint" />
            <mxPoint x="77" y="135.5" as="targetPoint" />
            <Array as="points">
              <mxPoint x="1197" y="625.5" />
            </Array>
          </mxGeometry>
        </mxCell>
        <mxCell id="90" value="" style="edgeStyle=elbowEdgeStyle;elbow=horizontal;strokeWidth=2;rounded=0" parent="1" source="52" target="53" edge="1">
          <mxGeometry x="-23" y="135.5" width="100" height="100" as="geometry">
            <mxPoint x="-23" y="235.5" as="sourcePoint" />
            <mxPoint x="77" y="135.5" as="targetPoint" />
            <Array as="points">
              <mxPoint x="1547" y="535.5" />
            </Array>
          </mxGeometry>
        </mxCell>
        <mxCell id="91" value="" style="edgeStyle=elbowEdgeStyle;elbow=horizontal;strokeWidth=2;rounded=0" parent="1" source="52" target="54" edge="1">
          <mxGeometry x="-23" y="135.5" width="100" height="100" as="geometry">
            <mxPoint x="-23" y="235.5" as="sourcePoint" />
            <mxPoint x="77" y="135.5" as="targetPoint" />
            <Array as="points">
              <mxPoint x="1547" y="575.5" />
            </Array>
          </mxGeometry>
        </mxCell>
        <mxCell id="92" value="" style="edgeStyle=elbowEdgeStyle;elbow=horizontal;strokeWidth=2;rounded=0" parent="1" source="52" target="55" edge="1">
          <mxGeometry x="-23" y="135.5" width="100" height="100" as="geometry">
            <mxPoint x="-23" y="235.5" as="sourcePoint" />
            <mxPoint x="77" y="135.5" as="targetPoint" />
            <Array as="points">
              <mxPoint x="1547" y="625.5" />
            </Array>
          </mxGeometry>
        </mxCell>
        <mxCell id="93" value="" style="edgeStyle=elbowEdgeStyle;elbow=horizontal;strokeWidth=2;rounded=0" parent="1" source="52" target="56" edge="1">
          <mxGeometry x="-23" y="135.5" width="100" height="100" as="geometry">
            <mxPoint x="-23" y="235.5" as="sourcePoint" />
            <mxPoint x="77" y="135.5" as="targetPoint" />
            <Array as="points">
              <mxPoint x="1547" y="675.5" />
            </Array>
          </mxGeometry>
        </mxCell>
        <mxCell id="94" value="" style="edgeStyle=elbowEdgeStyle;elbow=horizontal;strokeWidth=2;rounded=0" parent="1" source="52" target="57" edge="1">
          <mxGeometry x="-23" y="135.5" width="100" height="100" as="geometry">
            <mxPoint x="-23" y="235.5" as="sourcePoint" />
            <mxPoint x="77" y="135.5" as="targetPoint" />
            <Array as="points">
              <mxPoint x="1547" y="725.5" />
            </Array>
          </mxGeometry>
        </mxCell>
        <mxCell id="95" value="" style="edgeStyle=elbowEdgeStyle;elbow=horizontal;strokeWidth=2;rounded=0" parent="1" source="52" target="58" edge="1">
          <mxGeometry x="-23" y="135.5" width="100" height="100" as="geometry">
            <mxPoint x="-23" y="235.5" as="sourcePoint" />
            <mxPoint x="77" y="135.5" as="targetPoint" />
            <Array as="points">
              <mxPoint x="1547" y="765.5" />
            </Array>
          </mxGeometry>
        </mxCell>
        <mxCell id="100" value="" style="edgeStyle=elbowEdgeStyle;elbow=vertical;strokeWidth=2;rounded=0" parent="1" source="12" target="25" edge="1">
          <mxGeometry x="-23" y="135.5" width="100" height="100" as="geometry">
            <mxPoint x="-23" y="235.5" as="sourcePoint" />
            <mxPoint x="77" y="135.5" as="targetPoint" />
          </mxGeometry>
        </mxCell>
        <mxCell id="101" value="" style="edgeStyle=elbowEdgeStyle;elbow=vertical;strokeWidth=2;rounded=0" parent="1" source="12" target="29" edge="1">
          <mxGeometry x="-23" y="135.5" width="100" height="100" as="geometry">
            <mxPoint x="-23" y="235.5" as="sourcePoint" />
            <mxPoint x="77" y="135.5" as="targetPoint" />
          </mxGeometry>
        </mxCell>
        <mxCell id="102" value="" style="edgeStyle=elbowEdgeStyle;elbow=vertical;strokeWidth=2;rounded=0" parent="1" source="12" target="33" edge="1">
          <mxGeometry x="-23" y="135.5" width="100" height="100" as="geometry">
            <mxPoint x="-23" y="235.5" as="sourcePoint" />
            <mxPoint x="77" y="135.5" as="targetPoint" />
          </mxGeometry>
        </mxCell>
        <mxCell id="103" value="" style="edgeStyle=elbowEdgeStyle;elbow=vertical;strokeWidth=2;rounded=0" parent="1" source="10" target="41" edge="1">
          <mxGeometry x="-23" y="135.5" width="100" height="100" as="geometry">
            <mxPoint x="-23" y="235.5" as="sourcePoint" />
            <mxPoint x="77" y="135.5" as="targetPoint" />
          </mxGeometry>
        </mxCell>
        <mxCell id="105" value="" style="edgeStyle=elbowEdgeStyle;elbow=vertical;strokeWidth=2;rounded=0" parent="1" source="4" target="44" edge="1">
          <mxGeometry x="-23" y="135.5" width="100" height="100" as="geometry">
            <mxPoint x="-23" y="235.5" as="sourcePoint" />
            <mxPoint x="77" y="135.5" as="targetPoint" />
          </mxGeometry>
        </mxCell>
        <mxCell id="107" value="" style="edgeStyle=elbowEdgeStyle;elbow=vertical;rounded=0;strokeWidth=2" parent="1" source="14" target="15" edge="1">
          <mxGeometry x="-23" y="135.5" width="100" height="100" as="geometry">
            <mxPoint x="-23" y="235.5" as="sourcePoint" />
            <mxPoint x="77" y="135.5" as="targetPoint" />
          </mxGeometry>
        </mxCell>
        <mxCell id="NunpnJ9l62--Nl-iWXcG-123" value="Order&#xa;class" style="rounded=1;fillColor=#23445D;gradientColor=none;strokeColor=none;fontColor=#FFFFFF;fontStyle=1;fontFamily=Tahoma;fontSize=14" vertex="1" parent="1">
          <mxGeometry x="340" y="335.5" width="190" height="80" as="geometry" />
        </mxCell>
        <mxCell id="NunpnJ9l62--Nl-iWXcG-126" value="" style="edgeStyle=elbowEdgeStyle;elbow=horizontal;strokeWidth=2;rounded=0" edge="1" parent="1">
          <mxGeometry x="-23" y="135.5" width="100" height="100" as="geometry">
            <mxPoint x="130" y="705.5" as="sourcePoint" />
            <mxPoint x="167" y="701" as="targetPoint" />
            <Array as="points">
              <mxPoint x="132" y="560.5" />
            </Array>
          </mxGeometry>
        </mxCell>
        <mxCell id="NunpnJ9l62--Nl-iWXcG-127" value="BuildingProject&#xa;class" style="rounded=1;fillColor=#23445D;gradientColor=none;strokeColor=none;fontColor=#FFFFFF;fontStyle=1;fontFamily=Tahoma;fontSize=14" vertex="1" parent="1">
          <mxGeometry x="799.9999999999999" y="335.5" width="190" height="80" as="geometry" />
        </mxCell>
        <mxCell id="NunpnJ9l62--Nl-iWXcG-128" value="Buildings Tandem" style="rounded=1;fillColor=#23445D;gradientColor=none;strokeColor=none;fontColor=#FFFFFF;fontStyle=1;fontFamily=Tahoma;fontSize=14" vertex="1" parent="1">
          <mxGeometry x="756.9999999999999" y="190" width="190" height="80" as="geometry" />
        </mxCell>
        <mxCell id="NunpnJ9l62--Nl-iWXcG-130" value="Building" style="rounded=1;fillColor=#23445D;gradientColor=none;strokeColor=none;fontColor=#FFFFFF;fontStyle=1;fontFamily=Tahoma;fontSize=14" vertex="1" parent="1">
          <mxGeometry x="1479.9999999999998" y="335.5" width="190" height="80" as="geometry" />
        </mxCell>
        <mxCell id="NunpnJ9l62--Nl-iWXcG-136" value="" style="edgeStyle=elbowEdgeStyle;elbow=vertical;strokeWidth=2;rounded=0;entryX=0.526;entryY=0.028;entryDx=0;entryDy=0;entryPerimeter=0;" edge="1" parent="1" target="NunpnJ9l62--Nl-iWXcG-123">
          <mxGeometry x="347" y="225.5" width="100" height="100" as="geometry">
            <mxPoint x="630" y="300" as="sourcePoint" />
            <mxPoint x="440" y="330" as="targetPoint" />
            <Array as="points">
              <mxPoint x="540" y="300" />
            </Array>
          </mxGeometry>
        </mxCell>
        <mxCell id="NunpnJ9l62--Nl-iWXcG-137" value="" style="edgeStyle=elbowEdgeStyle;elbow=vertical;strokeWidth=2;rounded=0;entryX=0.5;entryY=0;entryDx=0;entryDy=0;" edge="1" parent="1" target="NunpnJ9l62--Nl-iWXcG-127">
          <mxGeometry x="347" y="225.5" width="100" height="100" as="geometry">
            <mxPoint x="862" y="300" as="sourcePoint" />
            <mxPoint x="672" y="346" as="targetPoint" />
            <Array as="points">
              <mxPoint x="880" y="300" />
            </Array>
          </mxGeometry>
        </mxCell>
        <mxCell id="NunpnJ9l62--Nl-iWXcG-138" value="" style="edgeStyle=elbowEdgeStyle;elbow=vertical;strokeWidth=2;rounded=0;entryX=0.5;entryY=0;entryDx=0;entryDy=0;" edge="1" parent="1">
          <mxGeometry x="347" y="225.5" width="100" height="100" as="geometry">
            <mxPoint x="1090" y="299.5" as="sourcePoint" />
            <mxPoint x="1123" y="335.5" as="targetPoint" />
            <Array as="points">
              <mxPoint x="1108" y="299.5" />
            </Array>
          </mxGeometry>
        </mxCell>
        <mxCell id="NunpnJ9l62--Nl-iWXcG-139" value="" style="edgeStyle=elbowEdgeStyle;elbow=vertical;strokeWidth=2;rounded=0;entryX=0.5;entryY=0;entryDx=0;entryDy=0;" edge="1" parent="1">
          <mxGeometry x="347" y="225.5" width="100" height="100" as="geometry">
            <mxPoint x="1330" y="299.5" as="sourcePoint" />
            <mxPoint x="1363" y="335.5" as="targetPoint" />
            <Array as="points">
              <mxPoint x="1368" y="299.5" />
            </Array>
          </mxGeometry>
        </mxCell>
        <mxCell id="NunpnJ9l62--Nl-iWXcG-143" value="String password" style="rounded=1;fillColor=#23445D;gradientColor=none;strokeColor=none;fontColor=#FFFFFF;fontStyle=1;fontFamily=Tahoma;fontSize=14" vertex="1" parent="1">
          <mxGeometry x="1217" y="810.5000000000001" width="130" height="60" as="geometry" />
        </mxCell>
        <mxCell id="NunpnJ9l62--Nl-iWXcG-144" value="Enum setOfRights&#xa;нужен ли енам &#xa;с набором прав?" style="rounded=1;fillColor=#a20025;strokeColor=#6F0000;fontStyle=1;fontFamily=Tahoma;fontSize=14;fontColor=#ffffff;" vertex="1" parent="1">
          <mxGeometry x="1217" y="900" width="130" height="90" as="geometry" />
        </mxCell>
        <mxCell id="NunpnJ9l62--Nl-iWXcG-146" value="" style="edgeStyle=elbowEdgeStyle;elbow=horizontal;strokeWidth=2;rounded=0;exitX=0;exitY=0.197;exitDx=0;exitDy=0;exitPerimeter=0;" edge="1" parent="1" source="NunpnJ9l62--Nl-iWXcG-141">
          <mxGeometry x="-23" y="135.5" width="100" height="100" as="geometry">
            <mxPoint x="1197" y="760" as="sourcePoint" />
            <mxPoint x="1217" y="845.5" as="targetPoint" />
            <Array as="points">
              <mxPoint x="1197" y="715" />
            </Array>
          </mxGeometry>
        </mxCell>
        <mxCell id="NunpnJ9l62--Nl-iWXcG-147" value="" style="edgeStyle=elbowEdgeStyle;elbow=horizontal;strokeWidth=2;rounded=0" edge="1" parent="1">
          <mxGeometry x="-23" y="135.5" width="100" height="100" as="geometry">
            <mxPoint x="1087" y="770" as="sourcePoint" />
            <mxPoint x="1107" y="845.5" as="targetPoint" />
            <Array as="points">
              <mxPoint x="1087" y="715" />
            </Array>
          </mxGeometry>
        </mxCell>
        <mxCell id="NunpnJ9l62--Nl-iWXcG-148" value="" style="edgeStyle=elbowEdgeStyle;elbow=horizontal;strokeWidth=2;rounded=0;exitX=0;exitY=0.197;exitDx=0;exitDy=0;exitPerimeter=0;" edge="1" parent="1">
          <mxGeometry x="-23" y="135.5" width="100" height="100" as="geometry">
            <mxPoint x="1197" y="840" as="sourcePoint" />
            <mxPoint x="1217" y="929.5" as="targetPoint" />
            <Array as="points">
              <mxPoint x="1197" y="799" />
            </Array>
          </mxGeometry>
        </mxCell>
        <mxCell id="NunpnJ9l62--Nl-iWXcG-149" value="XMI" style="rounded=1;fillColor=#23445D;gradientColor=none;strokeColor=none;fontColor=#FFFFFF;fontStyle=1;fontFamily=Tahoma;fontSize=14" vertex="1" parent="1">
          <mxGeometry x="1400" y="460.50000000000006" width="130" height="60" as="geometry" />
        </mxCell>
        <mxCell id="NunpnJ9l62--Nl-iWXcG-150" value="XMI" style="rounded=1;fillColor=#23445D;gradientColor=none;strokeColor=none;fontColor=#FFFFFF;fontStyle=1;fontFamily=Tahoma;fontSize=14" vertex="1" parent="1">
          <mxGeometry x="1740" y="455.50000000000006" width="130" height="60" as="geometry" />
        </mxCell>
      </root>
    </mxGraphModel>
  </diagram>
</mxfile>
